<svg preserveAspectRatio="xMidYMid meet" width="223.224" height="44.5237" overflow="visible" style="display: block;" viewBox="0 0 223.224 44.5237" fill="none" xmlns="http://www.w3.org/2000/svg">
<g id="&#227;&#131;&#173;&#227;&#130;&#180;">
<path id="Vector" d="M55.8015 17.0679C57.7365 17.0679 61.9665 15.0654 64.5765 12.9842C66.5902 11.4992 68.334 9.69919 69.7515 7.64044L72.1927 9.80044C71.8777 10.0254 71.5965 10.2954 71.349 10.5879C70.0327 11.9154 68.559 13.0967 66.9727 14.0867V23.9192C66.9727 24.2792 67.0177 24.6279 67.074 24.9767H64.1265C64.194 24.6279 64.239 24.2792 64.239 23.9192V15.5154C61.9777 16.5617 59.5927 17.2817 57.129 17.6529C56.7915 17.6979 56.4652 17.7879 56.1502 17.9342L55.8015 17.0679Z" fill="var(--fill-0, white)"/>
<path id="Vector_2" d="M78.9878 11.0829C78.6278 11.0829 78.2678 11.1166 77.919 11.1841V10.1266C78.2678 10.1941 78.6278 10.2279 78.9878 10.2279H91.7903C92.1503 10.2279 92.499 10.1829 92.8478 10.1266V11.1841C92.499 11.1054 92.1503 11.0716 91.7903 11.0829H86.8853V22.0741H93.0615C93.4215 22.0741 93.7703 22.0291 94.119 21.9504V23.0754H93.9503C93.6578 23.0304 93.354 22.9966 93.0615 22.9854H77.7053C77.3453 22.9854 76.9965 23.0416 76.6478 23.1204V21.9954C76.9965 22.0854 77.3453 22.1191 77.7053 22.1191H83.949V11.0829H78.9878Z" fill="var(--fill-0, white)"/>
<path id="Vector_3" d="M106.876 8.76533C106.865 8.43908 106.82 8.12408 106.764 7.80908H109.824C109.756 8.12408 109.723 8.43908 109.711 8.76533V12.9616H115.55C115.865 12.9728 116.18 12.9391 116.484 12.8603V13.9178C116.18 13.8503 115.865 13.8166 115.55 13.8166H109.711V14.2778C109.846 20.2066 107.461 23.0528 101.353 24.4028C101.038 24.4591 100.734 24.5603 100.441 24.6953L100.126 23.8403C102.208 23.5816 104.075 22.4678 105.29 20.7578C106.415 19.2053 106.82 17.6191 106.82 14.2778V13.8166H99.6539C99.3389 13.8166 99.0239 13.8391 98.7201 13.9178V12.8603C99.0239 12.9278 99.3389 12.9616 99.6539 12.9616H106.876V8.76533Z" fill="var(--fill-0, white)"/>
<path id="Vector_4" d="M122.323 9.91283C121.94 9.91283 121.569 9.94658 121.198 10.0141V8.93408C121.569 9.00158 121.94 9.03533 122.323 9.03533H138.5C138.118 13.9628 135.541 16.6853 130.096 17.9341C129.455 21.3766 127.081 23.5591 122.806 24.4928C122.525 24.5491 122.244 24.6278 121.985 24.7516L121.681 23.9191C122.739 23.8066 123.751 23.4128 124.618 22.7941C126.485 21.4441 127.43 19.2728 127.43 16.3478V13.6478C127.43 13.2878 127.408 12.9391 127.329 12.5903H130.366C130.299 12.9391 130.254 13.2878 130.254 13.6478V17.1241C133.213 15.9428 135.17 13.0853 135.204 9.89033L122.323 9.91283Z" fill="var(--fill-0, white)"/>
<path id="Vector_5" d="M148.816 8.57406C148.816 8.21406 148.783 7.85406 148.704 7.50531H151.696C151.629 7.85406 151.595 8.21406 151.606 8.57406V11.3528H159.38V12.9841C159.38 18.0803 159.256 21.3541 159.088 22.5016C159.088 23.5591 158.221 24.4028 157.164 24.4028C157.108 24.4028 157.04 24.4028 156.984 24.4028C155.566 24.2678 154.194 23.8403 152.934 23.1653C152.686 23.0528 152.416 22.9628 152.146 22.8953H151.933L152.248 22.0403C152.506 22.2091 152.799 22.3441 153.103 22.4228C153.789 22.6253 154.498 22.7491 155.218 22.7716C155.904 22.7716 156.241 22.4453 156.343 21.7028C156.568 19.0478 156.658 16.3928 156.613 13.7266V12.2078H151.595C151.595 15.5266 151.134 17.6303 150.155 19.3291C148.76 21.5453 146.634 23.1991 144.148 24.0203C143.866 24.1328 143.596 24.2791 143.349 24.4591L142.899 23.6603C144.575 23.2553 146.78 21.0841 147.658 18.9691C148.501 16.8203 148.884 14.5253 148.783 12.2191H144.103C143.866 12.2191 143.63 12.2416 143.405 12.2866H143.045V11.2291C143.394 11.2853 143.743 11.3191 144.103 11.3303H148.783L148.816 8.58531V8.57406Z" fill="var(--fill-0, white)"/>
<path id="Vector_6" d="M165.793 14.8516C165.41 14.8516 165.039 14.8853 164.668 14.9641V13.8953C165.039 13.9741 165.41 14.0078 165.793 14.0078H181.543C181.903 14.0078 182.252 13.9741 182.6 13.8953V14.9641C182.252 14.8853 181.903 14.8516 181.543 14.8516H175.828C175.76 20.4766 173.443 23.2216 167.649 24.6053C167.345 24.6728 167.042 24.7741 166.76 24.9203L166.502 24.0091C168.279 23.7503 169.888 22.8166 171.002 21.4216C172.318 19.8241 172.835 18.0466 172.869 14.8516H165.793ZM180.71 9.63158C180.362 9.56408 180.013 9.53033 179.653 9.53033H167.694C167.334 9.53033 166.985 9.56408 166.637 9.63158V8.57408C166.985 8.63033 167.334 8.66408 167.694 8.67533H179.653C180.013 8.67533 180.362 8.63033 180.71 8.57408V9.63158ZM181.127 5.55908V8.12408H179.855V5.55908H181.127ZM183.658 5.55908V8.12408H182.387V5.55908H183.658Z" fill="var(--fill-0, white)"/>
<path id="Vector_7" d="M200.96 25.0664C197.439 23.0527 190.307 20.9714 186.842 20.9489L187.348 19.6102C192.354 19.7452 197.327 20.6114 202.085 22.1639L200.96 25.0664ZM200.252 12.6239C196.528 10.8464 192.455 9.93519 188.327 9.96894L188.709 8.65269H190.453C193.625 8.61894 196.798 8.95644 199.892 9.65394C200.364 9.75519 200.825 9.89019 201.275 10.0589L200.252 12.6239ZM198.812 17.8552C197.304 16.7302 191.657 15.2227 189.125 15.2339L189.575 13.9852C193.378 13.9852 198.238 14.6827 199.835 15.3689L198.812 17.8552Z" fill="var(--fill-0, white)"/>
<path id="Vector_8" d="M223.224 16.6406C222.898 16.5731 222.571 16.5281 222.245 16.5281H207.451C207.125 16.5281 206.81 16.5618 206.495 16.6406V15.0656C206.81 15.1443 207.125 15.1893 207.451 15.1781H222.245C222.571 15.1781 222.898 15.1331 223.224 15.0656V16.6406Z" fill="var(--fill-0, white)"/>
<path id="Vector_9" d="M80.7089 36.7662L80.9226 36.845C80.9451 36.9912 81.0239 37.1262 81.1364 37.2275C81.2601 37.34 81.3951 37.4412 81.5414 37.5087C81.7101 37.5875 81.8901 37.6438 82.0701 37.6775C82.2501 37.7225 82.4301 37.745 82.6101 37.745C83.0039 37.7675 83.3864 37.6887 83.7351 37.5087C84.0051 37.295 84.1401 36.9575 84.1064 36.62V32.2775C84.1064 32.1537 84.0501 32.0412 83.9489 31.9737C83.8589 31.9062 83.7464 31.8725 83.6339 31.8725V31.625H86.2101V31.8725C86.0751 31.8725 85.9401 31.9062 85.8164 31.9737C85.7151 32.0412 85.6589 32.1537 85.6589 32.2775V36.7775C85.6701 37.4187 85.3439 38.015 84.8039 38.3413C84.5001 38.5213 84.1739 38.645 83.8364 38.7125C83.4314 38.78 83.0264 38.8137 82.6101 38.8137C82.3514 38.8137 82.0926 38.8025 81.8339 38.7575C81.6089 38.7575 81.3951 38.6787 81.2151 38.6337C81.0351 38.5887 80.8664 38.5325 80.7201 38.4875C80.6076 38.4425 80.4951 38.42 80.3826 38.42C80.2701 38.42 80.1801 38.4875 80.1351 38.5887L79.9326 38.4537L80.7089 36.7662Z" fill="var(--fill-0, white)"/>
<path id="Vector_10" d="M95.3677 33.0877C95.3677 32.9977 95.3227 32.9189 95.2552 32.8627C95.1314 32.8064 94.9852 32.784 94.8502 32.7952H90.4739V34.4714H93.1177C93.2639 34.4714 93.4102 34.449 93.5452 34.3927C93.6352 34.3927 93.6914 34.2127 93.6914 34.0102H93.9277V36.1139H93.6914C93.7139 35.9677 93.6577 35.8215 93.5452 35.7202C93.4102 35.6527 93.2639 35.6302 93.1177 35.6302H90.4739V37.4977H94.9739C95.0977 37.4977 95.2102 37.464 95.3115 37.4077C95.3902 37.3402 95.4352 37.2502 95.4352 37.149H95.6827V39.0052H95.4352C95.4352 38.8589 95.4352 38.7914 95.3115 38.7689H88.674V38.5215C88.7302 38.5215 88.7977 38.4989 88.8427 38.4652C88.8877 38.4089 88.9215 38.3415 88.9215 38.274V32.109C88.9215 32.0415 88.8877 31.9739 88.8427 31.9289C88.7977 31.8952 88.7302 31.8727 88.674 31.8727V31.6252H94.839C94.9852 31.6365 95.1202 31.614 95.244 31.5352C95.3115 31.479 95.3565 31.389 95.3565 31.299H95.6265V33.0877H95.3677Z" fill="var(--fill-0, white)"/>
<path id="Vector_11" d="M98.3152 38.4988C98.4839 38.4988 98.5739 38.42 98.5739 38.2512V32.1088C98.5739 31.9513 98.4839 31.8725 98.3152 31.8725V31.625H100.633V31.8725C100.554 31.8725 100.52 31.8725 100.52 32.0075C100.52 32.1425 100.61 32.21 100.79 32.39L104.626 36.4175V32.1088C104.626 31.9513 104.514 31.8725 104.278 31.8725V31.625H106.314V31.8725C106.145 31.8725 106.055 31.9513 106.055 32.1088V38.2512C106.055 38.42 106.145 38.4988 106.314 38.4988V38.7462H104.176V38.4988C104.289 38.4988 104.345 38.4988 104.345 38.375C104.345 38.2513 104.278 38.2062 104.131 38.0712L100.003 33.7625V38.2625C100.003 38.4312 100.104 38.51 100.318 38.51V38.7575H98.3152V38.4988Z" fill="var(--fill-0, white)"/>
<path id="Vector_12" d="M108.429 38.4988C108.541 38.4875 108.643 38.42 108.71 38.3188C108.789 38.2175 108.856 38.105 108.901 37.9812L111.376 32.7275C111.376 32.6037 111.489 32.5025 111.545 32.4012C111.59 32.3225 111.613 32.2325 111.613 32.1425C111.613 32.0637 111.59 31.9962 111.523 31.9512L111.376 31.8725V31.625H113.626V31.8725L113.435 31.94C113.368 31.94 113.345 32.0412 113.345 32.1425C113.334 32.21 113.334 32.2887 113.345 32.3562C113.345 32.4237 113.424 32.525 113.491 32.6375L116.304 38.15C116.338 38.24 116.405 38.3187 116.484 38.3637L116.743 38.4988V38.7462H114.369V38.4988C114.369 38.4988 114.459 38.51 114.504 38.4988C114.549 38.4763 114.583 38.4313 114.583 38.375C114.583 38.2513 114.538 38.1387 114.481 38.0262L113.964 37.025H110.713L110.229 37.9925C110.161 38.1162 110.116 38.2513 110.094 38.3975C110.094 38.4988 110.184 38.5437 110.353 38.5437V38.7912H108.429V38.4988ZM113.536 35.9337L112.411 33.425L111.129 35.9337H113.536Z" fill="var(--fill-0, white)"/>
<path id="Vector_13" d="M122.626 38.4988C122.739 38.4763 122.84 38.42 122.908 38.3188C122.986 38.2175 123.043 38.0937 123.099 37.9812L125.608 32.7275L125.765 32.4012C125.81 32.3225 125.844 32.2325 125.844 32.1425C125.844 32.0637 125.81 31.9962 125.754 31.9512L125.551 31.8725V31.625H127.801V31.8725L127.61 31.94C127.543 31.985 127.509 32.0637 127.52 32.1425C127.509 32.21 127.509 32.2887 127.52 32.3562L127.655 32.6375L130.479 38.15C130.513 38.24 130.58 38.3187 130.659 38.3637L130.918 38.4988V38.7462H128.544V38.4988C128.544 38.4988 128.634 38.51 128.679 38.4988C128.724 38.4763 128.758 38.4313 128.758 38.375C128.758 38.2513 128.713 38.1275 128.645 38.0262L128.139 37.025H124.831L124.348 37.9925C124.28 38.1162 124.235 38.2513 124.213 38.3975C124.213 38.4988 124.303 38.5437 124.471 38.5437V38.7912H122.626V38.4988ZM127.756 35.9337L126.631 33.425L125.349 35.9337H127.756Z" fill="var(--fill-0, white)"/>
<path id="Vector_14" d="M140.626 37.768H140.48C140.345 37.8017 140.221 37.858 140.098 37.9255C139.895 38.038 139.636 38.1617 139.321 38.2967C138.984 38.443 138.624 38.5555 138.264 38.6455C137.859 38.7467 137.443 38.7917 137.026 38.7917C136.475 38.7917 135.924 38.7242 135.384 38.578C134.889 38.443 134.416 38.218 134 37.9142C133.145 37.273 132.661 36.2605 132.695 35.1917C132.684 34.6517 132.808 34.1005 133.044 33.6167C133.28 33.178 133.606 32.7955 134 32.4917C134.416 32.1767 134.878 31.9292 135.384 31.7942C135.924 31.648 136.475 31.5692 137.026 31.5692C137.443 31.5692 137.859 31.603 138.275 31.6817C138.646 31.7492 138.973 31.828 139.254 31.9067C139.479 31.9742 139.704 32.0417 139.918 32.1317C140.008 32.188 140.109 32.2217 140.21 32.2442C140.255 32.2442 140.3 32.2217 140.323 32.1767L140.401 32.0755L140.604 32.233L139.501 33.8417L139.366 33.7517V33.583C139.366 33.4817 139.254 33.3917 139.096 33.2792C138.905 33.1667 138.703 33.0767 138.489 33.0092C138.241 32.9192 137.994 32.8517 137.735 32.8067C137.499 32.7505 137.251 32.7167 137.004 32.7167C136.621 32.7167 136.239 32.773 135.879 32.8855C135.541 32.9755 135.238 33.1442 134.968 33.358C134.709 33.5605 134.495 33.8305 134.349 34.123C134.191 34.4492 134.124 34.798 134.124 35.158C134.124 35.518 134.191 35.8667 134.349 36.193C134.495 36.4855 134.709 36.7442 134.968 36.958C135.238 37.1717 135.553 37.3292 135.879 37.4305C136.239 37.543 136.621 37.588 137.004 37.588C137.308 37.588 137.611 37.5542 137.904 37.4867C138.196 37.4305 138.489 37.3405 138.77 37.228C139.006 37.138 139.22 37.0255 139.423 36.8792C139.603 36.7442 139.693 36.6205 139.693 36.508C139.715 36.4517 139.715 36.4067 139.693 36.3505L139.884 36.238L140.773 37.6667L140.626 37.768Z" fill="var(--fill-0, white)"/>
<path id="Vector_15" d="M142.528 38.4988C142.64 38.4763 142.742 38.42 142.809 38.3188C142.888 38.2175 142.955 38.105 143 37.9812L145.509 32.7275C145.509 32.6037 145.622 32.5025 145.678 32.4012C145.723 32.3225 145.745 32.2325 145.745 32.1425C145.745 32.0637 145.712 31.9962 145.655 31.9512L145.453 31.8725V31.625H147.703V31.8725L147.512 31.94C147.444 31.985 147.41 32.0637 147.422 32.1425C147.41 32.21 147.41 32.2887 147.422 32.3562C147.422 32.4237 147.5 32.525 147.568 32.6375L150.38 38.15C150.414 38.24 150.482 38.3187 150.56 38.3637C150.65 38.42 150.74 38.465 150.83 38.4988V38.7462H148.502V38.4988C148.502 38.4988 148.592 38.51 148.637 38.4988C148.682 38.4763 148.715 38.4313 148.715 38.375C148.715 38.2513 148.67 38.1275 148.603 38.0262L148.097 37.025H144.789L144.305 37.9925C144.238 38.1162 144.193 38.2513 144.17 38.3975C144.17 38.4988 144.26 38.5437 144.429 38.5437V38.7912H142.505L142.528 38.4988ZM147.624 35.9337L146.499 33.425L145.217 35.9337H147.624Z" fill="var(--fill-0, white)"/>
<path id="Vector_16" d="M157.299 31.625C157.771 31.625 158.233 31.6925 158.683 31.8387C159.099 31.9737 159.481 32.1987 159.808 32.5025C160.134 32.8175 160.393 33.2 160.561 33.6275C160.921 34.6512 160.921 35.765 160.561 36.7888C160.393 37.2163 160.134 37.5988 159.808 37.9138C159.481 38.2175 159.099 38.4312 158.683 38.5662C158.233 38.7125 157.771 38.7912 157.299 38.7912H152.799V38.5437C153.001 38.5437 153.114 38.465 153.114 38.2963V32.1088C153.114 31.9513 153.001 31.8725 152.799 31.8725V31.625H157.299ZM156.759 37.5763C157.141 37.5763 157.513 37.5537 157.884 37.4637C158.165 37.3962 158.424 37.2612 158.626 37.0587C158.84 36.8562 159.009 36.6088 159.099 36.3275C159.29 35.5625 159.29 34.7637 159.099 33.9987C158.93 33.4137 158.435 32.975 157.839 32.8737C157.468 32.795 157.096 32.7612 156.714 32.7725H154.621V37.5538L156.759 37.5763Z" fill="var(--fill-0, white)"/>
<path id="Vector_17" d="M169.955 33.0877C169.955 32.9977 169.922 32.9077 169.843 32.8627C169.719 32.8064 169.584 32.784 169.449 32.7952H165.062V34.4714H167.717C167.863 34.4714 167.998 34.449 168.133 34.3927C168.234 34.3927 168.279 34.2127 168.279 34.0102H168.527V36.1139H168.279C168.279 35.9114 168.279 35.7765 168.133 35.7202C168.009 35.6527 167.863 35.619 167.717 35.6302H165.062V37.4977H169.562C169.685 37.4977 169.798 37.4752 169.899 37.4077C169.978 37.3515 170.023 37.2502 170.023 37.149H170.27V39.0052H170.023C170.023 38.8589 170.023 38.7914 169.899 38.7689H163.262V38.5215C163.318 38.5215 163.385 38.4989 163.43 38.4652C163.487 38.4202 163.509 38.3415 163.509 38.274V32.109C163.509 32.0415 163.487 31.9739 163.43 31.9289C163.385 31.8952 163.318 31.8727 163.262 31.8727V31.6252H169.438C169.573 31.6365 169.719 31.614 169.832 31.5352C169.91 31.479 169.955 31.389 169.944 31.299H170.192V33.0877H169.955Z" fill="var(--fill-0, white)"/>
<path id="Vector_18" d="M172.869 38.499C172.936 38.499 172.993 38.4765 173.049 38.4427C173.105 38.3977 173.139 38.3302 173.139 38.2515V32.0865C173.139 32.019 173.105 31.9515 173.049 31.9177C172.993 31.8952 172.925 31.8952 172.869 31.9177V31.6702H175.389V31.9177C175.389 31.9177 175.299 31.9177 175.254 31.9177C175.209 31.9402 175.175 31.9852 175.175 32.0415C175.164 32.0977 175.164 32.1652 175.175 32.2215L175.299 32.4465L177.29 35.934L179.236 32.4577C179.304 32.3452 179.349 32.244 179.383 32.1765C179.383 32.1202 179.383 32.0527 179.383 31.9965C179.383 31.8952 179.326 31.8502 179.203 31.8502V31.6027H181.711V31.8502C181.644 31.8277 181.588 31.8277 181.52 31.8502C181.464 31.884 181.43 31.9515 181.441 32.019V38.184C181.441 38.2515 181.464 38.3302 181.52 38.3752C181.576 38.409 181.644 38.4315 181.711 38.4315V38.679H179.585V38.4315C179.833 38.4315 179.945 38.3527 179.945 38.184V33.684L177.223 38.6677L174.556 33.6727V38.1727C174.556 38.3415 174.68 38.4202 174.928 38.4202V38.6677H172.903L172.869 38.499Z" fill="var(--fill-0, white)"/>
<path id="Vector_19" d="M186.448 31.6255V31.873C186.369 31.8618 186.301 31.8618 186.223 31.873C186.144 31.8955 186.099 31.963 186.11 32.0418C186.155 32.1768 186.211 32.3118 186.301 32.4243L186.763 33.1105L187.314 33.9093C187.505 34.1793 187.651 34.4043 187.775 34.5955L189.35 32.4243L189.53 32.1655C189.53 32.1655 189.598 32.053 189.598 31.9855C189.598 31.9293 189.598 31.8843 189.463 31.8618H189.238V31.6143H191.6V31.8618C191.533 31.8505 191.465 31.8505 191.398 31.8618C191.33 31.873 191.263 31.9068 191.206 31.9518C191.128 32.0193 191.049 32.0868 190.981 32.1655L190.7 32.548L188.45 35.8105V38.218C188.45 38.3868 188.551 38.4655 188.765 38.4655V38.713H186.628V38.4655C186.695 38.4655 186.774 38.443 186.83 38.4093C186.886 38.3643 186.909 38.2855 186.909 38.218V35.8443L184.299 32.1993C184.22 32.098 184.119 32.0193 184.006 31.963C183.905 31.9068 183.793 31.8843 183.68 31.873V31.6255H186.448Z" fill="var(--fill-0, white)"/>
<path id="Vector_20" d="M4.50143 11.4542H4.42268L4.89518 10.6892H4.96268C4.96268 10.6892 4.96268 10.7792 4.96268 10.8242C4.95143 10.8579 4.95143 10.8917 4.96268 10.9254L6.29018 11.7467C6.39143 11.8029 6.47018 11.8817 6.52643 11.9829C6.57143 12.0729 6.59393 12.1854 6.60518 12.2867C6.60518 12.4104 6.58268 12.5229 6.53768 12.6354C6.48143 12.7704 6.42518 12.8942 6.34643 13.0179L6.18893 13.2429L6.03143 13.4342L5.89643 13.5579L5.81768 13.6479V13.7492H5.73893L5.39018 13.2317C5.39018 13.2317 5.49143 13.2542 5.54768 13.2317L5.70518 13.1529L5.85143 13.0292C5.85143 13.0292 5.93018 12.9392 5.96393 12.8829C6.04268 12.7704 6.09893 12.6354 6.11018 12.4892C6.09893 12.3767 6.02018 12.2642 5.91893 12.2192L4.62518 11.4204C4.62518 11.4204 4.54643 11.3979 4.51268 11.4204C4.51268 11.4204 4.51268 11.4429 4.51268 11.4542H4.50143ZM5.72768 9.62044H5.79518L7.41518 11.0492C7.41518 11.0492 7.41518 11.0829 7.41518 11.1054H7.48268L8.92268 9.56419C8.92268 9.56419 8.96768 9.49669 9.00143 9.47419C9.02393 9.45169 9.06893 9.45169 9.09143 9.47419L9.14768 9.40669L8.66393 9.01294C8.66393 9.01294 8.67518 9.08044 8.66393 9.11419C8.66393 9.15919 8.64143 9.19294 8.60768 9.21544L7.57268 10.4642L7.07768 10.0592L7.68518 9.36169C7.68518 9.36169 7.75268 9.29419 7.79768 9.27169C7.79768 9.27169 7.88768 9.27169 7.94393 9.32794V9.26044L7.39268 8.77669L7.33643 8.84419C7.39268 8.84419 7.41518 8.93419 7.40393 8.96794C7.39268 9.01294 7.35893 9.06919 7.32518 9.10294L6.75143 9.77794L6.30143 9.39544L7.30268 8.27044C7.30268 8.27044 7.37018 8.20294 7.41518 8.18044C7.43768 8.16919 7.48268 8.16919 7.50518 8.18044V8.11294L7.11143 7.69669L7.05518 7.80919C7.05518 7.80919 7.07768 7.80919 7.08893 7.80919C7.08893 7.86544 7.05518 7.91044 7.02143 7.94419L5.62643 9.59794L5.69393 9.65419L5.72768 9.62044ZM8.43893 6.81919L9.74393 8.50669C9.74393 8.50669 9.78893 8.58544 9.75518 8.61919C9.75518 8.61919 9.75518 8.61919 9.74393 8.63044V8.69794L10.2952 8.27044V8.20294C10.2952 8.20294 10.1939 8.24794 10.1489 8.20294L9.19268 6.96544L11.2514 7.26919H11.3752C11.3752 7.26919 11.3752 7.26919 11.3752 7.33669L11.4314 7.40419L12.0277 6.93169V6.86419C12.0277 6.86419 11.9489 6.90919 11.9152 6.87544C11.9152 6.87544 11.9152 6.87544 11.9039 6.86419L10.5089 5.21044C10.5089 5.21044 10.4639 5.13169 10.4977 5.09794C10.4977 5.09794 10.4977 5.09794 10.5089 5.08669V5.01919L9.94643 5.45794V5.52544H10.0927L11.0152 6.65044L9.10268 6.41419H8.94518V6.34669L8.30393 6.84169V6.90919C8.30393 6.90919 8.29268 6.81919 8.32643 6.79669C8.36018 6.77419 8.41643 6.78544 8.43893 6.81919ZM12.5002 3.96169V3.88294L13.2202 3.53419V3.61294C13.2202 3.61294 13.2089 3.66919 13.2202 3.69169V3.75919L13.3102 3.81544L15.0427 5.10919C15.0427 5.10919 15.0989 5.10919 15.1327 5.10919H15.2339V5.18794L14.4914 5.55919V5.48044L14.4014 5.39044L14.0864 5.15419L13.0627 5.67169V6.04294C13.0627 6.04294 13.0627 6.14419 13.0627 6.18919H13.1639V6.26794L12.5564 6.56044V6.48169C12.5564 6.48169 12.5677 6.42544 12.5564 6.39169C12.5564 6.34669 12.5564 6.30169 12.5564 6.25669V4.09669C12.5564 4.09669 12.5564 4.04044 12.5564 4.00669C12.5339 4.00669 12.5227 4.00669 12.5002 4.00669V3.96169ZM13.0627 5.28919L13.8164 4.90669L13.0739 4.29919V5.28919H13.0627ZM17.2702 4.59169V4.51294C17.2702 4.51294 17.3264 4.46794 17.3377 4.43419C17.3377 4.38919 17.3377 4.34419 17.3377 4.29919L17.8664 2.34169L18.0014 2.18419V2.12794H17.9227V1.97044L18.7102 1.82419V1.90294H18.6539M18.6539 1.97044C18.6539 1.97044 18.6539 2.02669 18.6539 2.04919V2.13919L19.9702 3.83794C19.9702 3.83794 20.0152 3.89419 20.0489 3.90544H20.1502V3.98419L19.3402 4.13044V4.05169C19.3402 4.05169 19.3402 3.97294 19.3402 3.93919L19.1264 3.63544L18.0014 3.84919L17.8889 4.20919C17.8889 4.20919 17.8889 4.31044 17.8889 4.35544H17.9789V4.43419L18.6539 1.97044ZM18.0239 3.46669L18.8452 3.30919L18.2939 2.52169L18.0239 3.46669ZM21.2189 3.70294C21.3652 3.81544 21.5339 3.89419 21.7027 3.93919C21.8939 3.99544 22.0852 4.01794 22.2764 4.02919C22.4227 4.05169 22.5577 4.05169 22.7039 4.02919C22.8277 3.99544 22.9514 3.96169 23.0752 3.90544C23.1652 3.87169 23.2552 3.82669 23.3452 3.78169H23.5364L23.2327 3.27544H23.1764C23.1764 3.27544 23.1764 3.30919 23.1764 3.33169C23.1764 3.38794 23.1314 3.43294 23.0864 3.46669C23.0077 3.51169 22.9289 3.54544 22.8502 3.57919L22.5464 3.66919C22.4452 3.68044 22.3327 3.68044 22.2314 3.66919C22.1077 3.69169 21.9839 3.69169 21.8602 3.66919C21.7477 3.62419 21.6464 3.56794 21.5452 3.50044C21.4664 3.38794 21.4102 3.25294 21.3764 3.11794C21.3202 3.00544 21.2977 2.88169 21.2977 2.75794C21.2977 2.63419 21.3202 2.51044 21.3764 2.39794C21.4327 2.30794 21.5114 2.24044 21.6014 2.18419C21.7027 2.11669 21.8152 2.06044 21.9277 2.02669C22.0514 2.00419 22.1864 2.00419 22.3102 2.02669H22.5577L22.8277 2.10544L23.0302 2.20669C23.0302 2.20669 23.1202 2.27419 23.1314 2.31919V2.29669L23.5139 1.73419H23.3452C23.2664 1.70044 23.1877 1.66669 23.1089 1.64419L22.7714 1.55419H22.3327C22.1414 1.55419 21.9502 1.57669 21.7589 1.63294C21.5902 1.67794 21.4214 1.75669 21.2752 1.85794C21.1289 1.95919 21.0164 2.09419 20.9377 2.25169C20.8477 2.42044 20.8027 2.61169 20.8027 2.80294C20.8027 2.99419 20.8364 3.18544 20.9152 3.35419C20.9939 3.48919 21.0952 3.61294 21.2189 3.71419V3.70294ZM24.8977 4.20919L24.2452 4.08544V4.00669C24.2452 4.00669 24.3239 4.01794 24.3577 4.00669C24.3914 3.97294 24.4252 3.93919 24.4477 3.90544L25.6627 2.28544L25.7527 2.18419V2.10544M25.7527 2.03794C25.7527 2.03794 25.7189 2.03794 25.6964 2.03794V1.85794L26.4839 2.01544V2.10544H26.4164C26.4164 2.10544 26.4164 2.13919 26.4164 2.16169V2.24044C26.4164 2.24044 26.4164 2.31919 26.4164 2.35294L27.0014 4.43419C27.0014 4.43419 27.0014 4.49044 27.0014 4.52419L27.0914 4.59169V4.67044L26.2814 4.50169V4.43419H26.3377C26.3377 4.43419 26.3377 4.35544 26.3377 4.31044L26.2252 3.92794L25.1002 3.70294L24.8639 3.99544C24.8639 4.06294 24.7964 4.09669 24.7964 4.13044C24.7964 4.16419 24.7964 4.13044 24.8752 4.19794L25.7527 2.03794ZM25.3589 3.30919L26.1802 3.47794L25.9664 2.54419L25.3589 3.30919ZM29.2514 5.49169L27.7889 4.88419V4.80544H27.9239L28.7452 2.82544C28.7452 2.82544 28.7452 2.73544 28.6777 2.71294V2.63419L30.1289 3.23044C30.2752 3.29794 30.4214 3.37669 30.5452 3.48919C30.6689 3.59044 30.7589 3.71419 30.8152 3.84919C30.8827 3.99544 30.9164 4.14169 30.9052 4.29919C30.9052 4.49044 30.8602 4.68169 30.7814 4.85044C30.7139 5.01919 30.6127 5.17669 30.4889 5.31169C30.3877 5.42419 30.2527 5.51419 30.1064 5.57044C29.9602 5.62669 29.8139 5.64919 29.6564 5.63794C29.5102 5.60419 29.3752 5.55919 29.2514 5.49169ZM29.2514 5.04169C29.3752 5.08669 29.4989 5.13169 29.6227 5.15419C29.7239 5.18794 29.8252 5.18794 29.9264 5.15419C30.0164 5.12044 30.1064 5.06419 30.1739 4.98544C30.2639 4.87294 30.3314 4.73794 30.3764 4.60294C30.4327 4.47919 30.4777 4.34419 30.4889 4.20919C30.4889 4.10794 30.4439 4.00669 30.3764 3.91669C30.3314 3.82669 30.2639 3.74794 30.1739 3.68044C30.0727 3.60169 29.9602 3.54544 29.8364 3.50044L29.1614 3.21919L28.5202 4.76044L29.2514 5.04169ZM33.0764 7.69669V7.78669H33.1552L33.5039 7.24669H33.4364C33.4364 7.24669 33.3689 7.25794 33.3464 7.24669C33.3127 7.26919 33.2677 7.26919 33.2339 7.24669L31.9289 6.38044L32.2889 5.84044L33.0539 6.34669C33.0539 6.34669 33.1327 6.40294 33.1552 6.44794V6.59419L33.1889 6.68419L33.5939 6.06544H33.5152C33.5152 6.12169 33.4364 6.15544 33.4027 6.14419C33.3577 6.14419 33.3127 6.14419 33.2677 6.14419L32.4914 5.55919L32.8177 5.06419L34.0889 5.90794C34.0889 5.90794 34.1789 5.97544 34.1902 6.00919C34.2014 6.04294 34.2014 6.06544 34.1902 6.09919H34.2577L34.5952 5.58169H34.5277C34.5277 5.58169 34.4714 5.58169 34.4489 5.58169C34.4039 5.59294 34.3589 5.59294 34.3139 5.58169L32.5252 4.45669V4.52419C32.5252 4.52419 32.5252 4.56919 32.5252 4.59169L31.3214 6.31294H31.2652C31.2652 6.31294 31.2202 6.31294 31.1977 6.31294V6.38044L33.0314 7.59544L33.0764 7.69669ZM35.6639 6.77419L34.1339 8.29294C34.1339 8.29294 34.0889 8.29294 34.0664 8.29294C34.0439 8.29294 34.0214 8.29294 33.9989 8.29294L34.4939 8.79919H34.5614C34.4939 8.73169 34.4827 8.68669 34.5614 8.64169L35.6864 7.51669L35.1014 9.39544L36.9127 8.93419L35.7877 10.0592H35.5964L36.1252 10.5767C36.1252 10.5767 36.1252 10.5429 36.1252 10.5204C36.1252 10.4979 36.1252 10.4754 36.1252 10.4529L37.6552 8.94544H37.7227L37.7789 8.87794L37.1714 8.25919L37.1152 8.32669M37.1152 8.40544H37.0139L35.6752 8.76544L36.0689 7.42669V7.33669C36.0689 7.33669 36.0689 7.30294 36.0689 7.28044H36.1252V7.21294L35.5064 6.58294V6.65044C35.5064 6.65044 35.6864 6.76294 35.6639 6.77419L37.1152 8.40544ZM38.0152 11.4992L37.3177 11.9604C37.3177 11.9604 37.2727 11.9604 37.2502 11.9604H37.1714L37.5877 12.5792H37.6552C37.6552 12.5792 37.6102 12.5117 37.6327 12.4667C37.6327 12.4667 37.6439 12.4442 37.6552 12.4442L38.3527 11.9829H40.0852V12.0392H40.1527L39.7027 11.3529H39.6352V11.4879H38.5439C38.5439 11.4204 38.6114 11.3304 38.6564 11.2179C38.7014 11.1054 38.7464 11.0154 38.7802 10.9142L38.8927 10.6442C38.8927 10.6442 38.9377 10.5542 38.9714 10.5092H39.0389V10.5767H39.1064L38.5777 9.75544H38.4989C38.4989 9.75544 38.4989 9.83419 38.4989 9.86794C38.4989 9.91294 38.4989 9.94669 38.4989 9.99169L38.0152 11.4992ZM13.0627 38.0829C13.0627 38.0829 13.0064 38.0829 12.9839 38.0829C12.9389 38.0829 12.8827 38.0604 12.8489 38.0267L11.0602 36.9017L11.0039 36.9804C11.0039 36.9804 11.0039 37.0254 11.0039 37.0479L9.85643 38.8704M9.80018 38.8704L9.74393 38.9492L11.5889 40.1529L11.6789 40.2204V40.3104H11.7464L12.1064 39.7817H12.0389C12.0389 39.7817 11.9827 39.7929 11.9489 39.7817C11.9152 39.7817 11.8702 39.7817 11.8364 39.7817L10.5202 38.9154L10.8802 38.3642L11.6452 38.8704L11.7577 38.9829C11.7577 38.9829 11.7802 39.0842 11.7577 39.1292H11.8252L12.2302 38.5104H12.1627C12.1627 38.5779 12.0839 38.6004 12.0389 38.6004L11.9039 38.5329L11.1277 38.0267L11.4539 37.5429L12.7364 38.3754L12.8377 38.4767C12.8377 38.4767 12.8489 38.5329 12.8377 38.5667H12.9052L13.2427 38.0492L9.80018 38.8704ZM15.3127 40.1529L15.8414 39.7367V39.6804C15.8414 39.6804 15.7852 39.6804 15.7514 39.6804C15.6952 39.6579 15.6502 39.6242 15.6164 39.5792L15.4477 39.4217L15.1777 39.2192C15.0539 39.1404 14.9302 39.0729 14.7952 39.0167C14.6377 38.9379 14.4689 38.8929 14.3002 38.8817C14.1652 38.8479 14.0414 38.8479 13.9064 38.8817C13.7939 38.9042 13.6927 38.9604 13.6139 39.0279C13.5577 39.1179 13.5239 39.2079 13.5014 39.3092C13.4677 39.4217 13.4677 39.5454 13.5014 39.6579C13.5014 39.7592 13.5464 39.8604 13.6139 39.9392C13.6814 40.0292 13.7602 40.0967 13.8502 40.1642L14.1539 40.3442L14.4689 40.5017L14.7389 40.6592C14.8064 40.6929 14.8627 40.7379 14.9077 40.8054C14.9527 40.8617 14.9527 40.9292 14.9077 40.9854C14.8852 41.0529 14.8289 41.0979 14.7614 41.1092C14.6827 41.1204 14.6039 41.1204 14.5252 41.1092C14.4464 41.1204 14.3564 41.1204 14.2777 41.1092L14.0752 41.0304C13.9964 40.9967 13.9289 40.9629 13.8614 40.9179L13.5014 40.6817C13.4452 40.6254 13.3889 40.5692 13.3439 40.5017C13.2989 40.4679 13.2652 40.4117 13.2652 40.3554C13.2652 40.3329 13.2652 40.2992 13.2652 40.2767L12.8039 40.7042H12.8714C12.8714 40.7042 12.9502 40.7492 12.9727 40.7829L13.1189 40.9404C13.1977 41.0079 13.2764 41.0754 13.3664 41.1204C13.4902 41.1992 13.6252 41.2667 13.7602 41.3342L14.1652 41.4692C14.3114 41.5142 14.4689 41.5479 14.6264 41.5592C14.7614 41.5592 14.8964 41.5142 15.0202 41.4579C15.1439 41.3904 15.2452 41.2779 15.3014 41.1429C15.3352 41.0304 15.3352 40.9067 15.3014 40.7942C15.2789 40.6929 15.2452 40.5917 15.1777 40.5129C15.1102 40.4229 15.0314 40.3442 14.9414 40.2879C14.8402 40.2204 14.7389 40.1642 14.6377 40.1079L14.3339 39.9392C14.2439 39.9054 14.1539 39.8492 14.0639 39.7929C13.9964 39.7479 13.9402 39.6917 13.8952 39.6242C13.8614 39.5679 13.8614 39.4892 13.8952 39.4329C13.9177 39.3879 13.9627 39.3542 14.0077 39.3317H14.3789C14.4464 39.3542 14.5139 39.3767 14.5814 39.4104L14.8289 39.5342L15.0314 39.7029C15.0314 39.7029 15.1327 39.8154 15.1777 39.8717C15.2114 39.9167 15.2452 39.9617 15.2564 40.0179C15.2564 40.0517 15.2564 40.0967 15.2564 40.1304L15.3127 40.1529ZM18.8564 40.2654H18.7664L16.7302 39.7704C16.7302 39.7704 16.6739 39.7704 16.6514 39.7704V39.6692H16.5614L16.4152 40.3104H16.4939C16.4939 40.3104 16.5164 40.2429 16.5502 40.2317H16.6402L17.3939 40.4117L16.9664 42.2342C16.9664 42.2342 16.9664 42.2679 16.9664 42.2904H16.8764V42.3692L17.5852 42.5379V42.4592C17.5177 42.4592 17.4952 42.4592 17.5064 42.3467L18.0014 40.5129L18.7552 40.6929H18.8339C18.8339 40.6929 18.8452 40.7604 18.8339 40.7829H18.9239L19.0702 40.1417H18.9914C18.9914 40.1979 18.9577 40.2542 18.9014 40.2654H18.8564ZM19.7789 42.2454C19.6889 42.2454 19.5989 42.2567 19.5314 42.3129C19.4639 42.3692 19.4189 42.4479 19.4077 42.5379C19.4077 42.6279 19.4302 42.7067 19.4864 42.7742C19.5427 42.8417 19.6214 42.8867 19.7114 42.8979C19.8014 42.8979 19.8914 42.8867 19.9589 42.8304C20.0264 42.7742 20.0714 42.7067 20.0827 42.6167C20.0827 42.5267 20.0602 42.4367 20.0039 42.3692C19.9589 42.3129 19.8914 42.2679 19.8239 42.2454H19.7789ZM25.0889 42.2454V42.3692H24.9877L23.4464 42.5267C23.5252 42.4367 23.6152 42.3579 23.7277 42.3017L24.0539 42.1217L24.4027 41.9529C24.5039 41.8967 24.6052 41.8292 24.6952 41.7504C24.7739 41.6717 24.8414 41.5817 24.8864 41.4804C24.9427 41.3679 24.9652 41.2329 24.9427 41.1092C24.9427 40.9854 24.8864 40.8617 24.8189 40.7604C24.7627 40.6704 24.6839 40.5917 24.5827 40.5467C24.4814 40.5017 24.3802 40.4679 24.2677 40.4454C24.1439 40.4342 24.0314 40.4342 23.9077 40.4454C23.7502 40.4679 23.5927 40.5017 23.4464 40.5692C23.3339 40.6254 23.2327 40.6817 23.1314 40.7604C23.0639 40.8054 22.9964 40.8729 22.9402 40.9292C22.9402 40.9854 22.8727 41.0079 22.8502 41.0079L23.3789 41.4692C23.3789 41.4692 23.3789 41.4242 23.3789 41.4017C23.3789 41.3342 23.4014 41.2779 23.4464 41.2217C23.4914 41.1654 23.5477 41.1204 23.6152 41.0754L23.8289 40.9629C23.8964 40.9629 23.9639 40.9629 24.0314 40.9629C24.0877 40.9517 24.1327 40.9517 24.1889 40.9629C24.2452 40.9517 24.2902 40.9517 24.3464 40.9629C24.3914 40.9854 24.4477 41.0192 24.4814 41.0529C24.5152 41.0979 24.5264 41.1542 24.5377 41.2104C24.5489 41.3117 24.5152 41.4129 24.4364 41.4804C24.3464 41.5704 24.2452 41.6492 24.1439 41.7167L23.7614 41.9642C23.6264 42.0429 23.5027 42.1442 23.3789 42.2454C23.2664 42.3467 23.1764 42.4592 23.0977 42.5829C23.0302 42.7179 23.0077 42.8754 23.0189 43.0217V43.1904M23.0189 43.1342H23.0977L25.0777 42.9429H25.2352L25.1789 42.3242L23.0189 43.1342ZM28.3064 40.7829C28.3514 40.9517 28.3514 41.1317 28.3064 41.3004C28.2839 41.4579 28.2277 41.6154 28.1489 41.7617C28.0589 41.8967 27.9464 42.0204 27.8114 42.1217C27.6652 42.2229 27.5077 42.2904 27.3389 42.3354C27.1702 42.3579 26.9902 42.3579 26.8214 42.3354C26.6527 42.3242 26.4952 42.2679 26.3489 42.1892C26.2027 42.1104 26.0789 42.0092 25.9777 41.8854C25.8764 41.7392 25.7977 41.5817 25.7527 41.4129C25.7189 41.2442 25.7189 41.0642 25.7527 40.8954C25.7752 40.7267 25.8314 40.5692 25.9214 40.4342C26.0002 40.2992 26.1127 40.1754 26.2477 40.0742C26.3939 39.9729 26.5514 39.8942 26.7202 39.8492C26.8889 39.8154 27.0689 39.8154 27.2377 39.8492C27.4064 39.8604 27.5639 39.9167 27.7102 39.9954C27.8564 40.0742 27.9802 40.1754 28.0814 40.3104C28.2052 40.4454 28.2952 40.6029 28.3514 40.7717H28.3064V40.7829ZM27.7889 40.9292C27.7664 40.8167 27.7102 40.7042 27.6427 40.6142C27.5302 40.4342 27.3389 40.3104 27.1364 40.2767C27.0352 40.2542 26.9227 40.2542 26.8214 40.2767C26.7202 40.3104 26.6302 40.3554 26.5514 40.4229C26.4727 40.4904 26.4052 40.5692 26.3602 40.6592C26.3152 40.7492 26.2814 40.8617 26.2702 40.9629C26.2477 41.0754 26.2477 41.1992 26.2702 41.3117C26.3039 41.4242 26.3489 41.5254 26.4164 41.6267C26.4839 41.7167 26.5514 41.7842 26.6414 41.8517C26.7314 41.9079 26.8214 41.9417 26.9227 41.9642C27.0239 41.9867 27.1364 41.9867 27.2377 41.9642C27.3389 41.9417 27.4402 41.8967 27.5189 41.8292C27.5977 41.7617 27.6539 41.6717 27.6989 41.5817C27.7552 41.4917 27.7777 41.3904 27.7889 41.2779C27.8339 41.1654 27.8452 41.0417 27.8339 40.9179H27.7889V40.9292ZM30.8152 40.9292C30.8152 40.9292 30.7589 40.9292 30.7364 40.8504L29.8477 38.8817C29.8477 38.8817 29.8477 38.8254 29.8477 38.8029L29.9264 38.7354V38.6792L29.2289 38.9942H29.3077L29.3752 39.0617C29.3752 39.0617 29.3977 39.1517 29.3752 39.1967C29.3527 39.2417 29.3189 39.2754 29.2739 39.2867H29.1952C29.1952 39.2867 29.1502 39.2979 29.1277 39.2867L29.3639 39.8267V39.6917H29.5102L30.1514 41.1317C30.1514 41.1317 30.1627 41.2104 30.1514 41.2442H30.0952L30.8039 40.9292C30.8039 40.9292 30.8489 40.9517 30.8602 40.9629L30.8152 40.9292ZM34.0327 38.1842C34.1114 38.2967 34.1564 38.4317 34.1564 38.5667C34.1564 38.7017 34.1339 38.8254 34.0777 38.9492C34.0327 39.0729 33.9539 39.1854 33.8639 39.2867C33.7739 39.3879 33.6727 39.4779 33.5602 39.5454C33.4139 39.6467 33.2677 39.7142 33.0989 39.7592C32.9527 39.7929 32.7952 39.7929 32.6489 39.7592C32.5027 39.7254 32.3564 39.6579 32.2439 39.5679C32.0977 39.4667 31.9852 39.3429 31.8952 39.1967C31.7939 39.0504 31.7152 38.8817 31.6814 38.7017C31.6477 38.5329 31.6477 38.3754 31.6814 38.2067C31.7489 37.8579 31.9627 37.5542 32.2664 37.3742C32.3677 37.3067 32.4802 37.2392 32.5927 37.1829L32.8514 37.1042H33.1327L33.1889 37.6779H33.1327C33.0764 37.6554 33.0089 37.6554 32.9527 37.6779H32.7502L32.5702 37.7567L32.4464 37.8242C32.2664 37.9254 32.1427 38.0942 32.0752 38.2854C32.0302 38.4879 32.0752 38.7017 32.1989 38.8704C32.2664 38.7354 32.3452 38.6004 32.4464 38.4879C32.5477 38.3754 32.6602 38.2629 32.7839 38.1842C32.8852 38.1167 32.9864 38.0717 33.0989 38.0379C33.2114 38.0154 33.3239 38.0154 33.4364 38.0379C33.5377 38.0379 33.6502 38.0717 33.7402 38.1279C33.8414 38.1279 33.9427 38.1392 34.0327 38.1842ZM33.6052 38.5217C33.5489 38.4092 33.4252 38.3417 33.3014 38.3529C32.9864 38.3642 32.7052 38.5554 32.5702 38.8367C32.5139 38.9492 32.5139 39.0729 32.5702 39.1854C32.6377 39.2979 32.7614 39.3654 32.8852 39.3542C33.0314 39.3542 33.1777 39.3092 33.3014 39.2192C33.4364 39.1404 33.5377 39.0167 33.6052 38.8817C33.6614 38.7692 33.6502 38.6342 33.6052 38.5217ZM0.00142642 18.7779C0.0801764 18.2717 0.181426 17.7767 0.293926 17.2929C3.07268 5.28919 15.0539 -2.19206 27.0689 0.575444C35.3827 2.49919 41.8627 8.97919 43.7864 17.2929C43.8989 17.7767 44.0002 18.2717 44.0789 18.7779C44.1014 18.9017 44.0452 19.0142 43.9439 19.0817C43.8427 19.1492 43.7077 19.1492 43.6064 19.0817L41.3564 17.7542L38.9377 19.6892C38.9377 19.6892 38.8139 19.7567 38.7464 19.7567C38.7127 19.7679 38.6677 19.7679 38.6339 19.7567C38.5327 19.7229 38.4539 19.6329 38.4314 19.5204C36.7889 10.4642 28.1039 4.45669 19.0477 6.09919C12.2189 7.33669 6.87518 12.6804 5.62643 19.5092C5.61518 19.6217 5.53643 19.7117 5.43518 19.7454C5.33393 19.8017 5.22143 19.8017 5.12018 19.7454L2.69018 17.7654L0.473926 19.0592C0.372676 19.1267 0.237676 19.1267 0.136426 19.0592C0.0464264 18.9917 -0.00982358 18.8904 0.00142642 18.7779ZM5.23268 18.2604L2.84768 16.3479L0.890176 17.5292C0.833926 17.7542 0.788926 17.9792 0.743926 18.2042L2.55518 17.0792C2.66768 17.0117 2.80268 17.0117 2.91518 17.0792L5.09768 18.8229L5.23268 18.2604ZM43.3702 18.2042C43.3702 17.9792 43.2802 17.7542 43.2239 17.5292L41.2552 16.3479L38.8814 18.2604L39.0164 18.8792L41.1989 17.1354C41.3114 17.0679 41.4464 17.0679 41.5589 17.1354L43.3702 18.2042ZM1.12643 16.6742L2.71268 15.6842C2.82518 15.6054 2.96018 15.6054 3.07268 15.6842L5.41268 17.5967C8.00018 8.40544 17.5514 3.05044 26.7427 5.63794C32.5364 7.26919 37.0702 11.8029 38.7014 17.5967L41.0414 15.6842C41.1539 15.6054 41.2889 15.6054 41.4014 15.6842L43.0102 16.6629C39.8939 5.09794 27.9802 -1.74206 16.4152 1.38544C8.95643 3.39919 3.14018 9.22669 1.12643 16.6742ZM44.1014 25.7417C44.0227 26.2367 43.9214 26.7317 43.8089 27.2267C41.0302 39.2417 29.0489 46.7229 17.0339 43.9442C8.72018 42.0204 2.24018 35.5404 0.316426 27.2267C0.203926 26.7317 0.102676 26.2367 0.0239264 25.7417C0.0126764 25.6179 0.0576764 25.4942 0.158926 25.4267C0.260176 25.3592 0.395176 25.3592 0.496426 25.4267L2.74643 26.7542L5.16518 24.8192C5.26643 24.7742 5.37893 24.7742 5.48018 24.8192C5.58143 24.8642 5.66018 24.9542 5.67143 25.0667C7.21268 34.1454 15.8302 40.2542 24.9089 38.7017C31.8952 37.5092 37.3627 32.0417 38.5439 25.0667C38.5664 24.9542 38.6452 24.8642 38.7464 24.8192C38.8364 24.7742 38.9602 24.7742 39.0502 24.8192L41.4689 26.7542L43.7189 25.4267C43.8202 25.3592 43.9552 25.3592 44.0564 25.4267C44.1239 25.5167 44.1464 25.6404 44.1014 25.7417ZM38.8814 26.2592L41.2552 28.1604L43.2239 26.9342C43.2239 26.7204 43.3252 26.4954 43.3702 26.2704L41.5589 27.3954C41.4464 27.4742 41.3114 27.4742 41.1989 27.3954L39.0164 25.6517L38.8814 26.2592ZM0.743926 26.3154C0.743926 26.5404 0.833926 26.7654 0.890176 26.9792L2.84768 28.1604L5.23268 26.2592L5.09768 25.6292L2.91518 27.3729C2.80268 27.4517 2.66768 27.4517 2.55518 27.3729L0.743926 26.3154ZM43.0102 27.8454L41.4014 28.8129C41.4014 28.8129 41.2889 28.8242 41.2327 28.8129C41.1652 28.8129 41.0977 28.7904 41.0414 28.7454L38.7014 26.9342C36.1139 36.1254 26.5627 41.4804 17.3714 38.8929C11.5777 37.2617 7.04393 32.7279 5.41268 26.9342L3.07268 28.7904C3.07268 28.7904 2.94893 28.8579 2.88143 28.8579C2.82518 28.8692 2.76893 28.8692 2.71268 28.8579L1.12643 27.8454C4.20893 39.4217 16.0889 46.3067 27.6652 43.2242C35.1689 41.2217 41.0414 35.3604 43.0439 27.8454H43.0102ZM2.56643 20.6904C3.43268 20.7692 4.07393 21.5229 4.00643 22.3892C3.93893 23.1542 3.33143 23.7617 2.56643 23.8292C1.70018 23.9079 0.935176 23.2554 0.867676 22.3892C0.788926 21.5229 1.44143 20.7579 2.30768 20.6904C2.39768 20.6904 2.48768 20.6904 2.57768 20.6904H2.56643ZM2.56643 21.3092C2.04893 21.3092 1.62143 21.7254 1.61018 22.2429C1.61018 22.7604 2.02643 23.1879 2.54393 23.1992C3.06143 23.1992 3.48893 22.7829 3.50018 22.2654C3.50018 21.7479 3.08393 21.3317 2.56643 21.3204V21.3092ZM41.8177 20.6904C42.6839 20.6904 43.3927 21.3992 43.3927 22.2654C43.3927 23.1317 42.6839 23.8404 41.8177 23.8404C40.9514 23.8404 40.2427 23.1317 40.2427 22.2654C40.2427 21.3992 40.9514 20.7017 41.8177 20.7017V20.6904ZM41.8177 21.3092C41.3002 21.3092 40.8727 21.7367 40.8727 22.2542C40.8727 22.7717 41.3002 23.1992 41.8177 23.1992C42.3352 23.1992 42.7627 22.7717 42.7627 22.2542C42.7627 21.7367 42.3352 21.3204 41.8177 21.3092ZM22.1752 37.7454C34.9439 32.6267 34.9439 25.7079 34.9439 13.1417C34.9439 13.0292 34.8764 12.9167 34.7752 12.8604L22.1977 6.57169C22.1077 6.52669 22.0064 6.52669 21.9164 6.57169L9.33893 12.8604C9.22643 12.9167 9.15893 13.0179 9.15893 13.1417C9.15893 25.7079 9.15893 32.6267 21.9389 37.7454H22.1752ZM22.0514 7.20169L34.3139 13.3329C34.3139 19.4192 34.3139 24.2229 32.7727 27.9579C31.1639 31.9179 27.8564 34.7079 22.0514 37.0704C16.2464 34.8092 12.9502 31.9629 11.3414 28.0592C9.81143 24.2792 9.78893 19.4754 9.78893 13.4342L22.0514 7.20169ZM23.7614 27.9917C24.6052 30.6017 25.8089 31.4679 27.6314 31.9067C27.2039 29.6904 26.4052 28.4867 23.7614 27.9917ZM28.4977 25.3029C27.4964 26.3154 27.4964 27.9354 28.4977 28.9479C29.5214 27.9467 29.5777 26.3379 28.5764 25.3142C28.5652 25.3029 28.5427 25.2804 28.4977 25.3029ZM33.6839 13.9179C33.6839 20.0492 33.5827 24.3354 32.1877 27.7667C30.6577 31.5354 27.6877 34.1117 22.1752 36.3842H21.9389C16.4489 34.1342 13.4564 31.5354 11.9264 27.7667C10.5314 24.3917 10.4302 20.0492 10.4189 13.9179C10.4189 13.7942 10.4864 13.6817 10.5989 13.6367L21.9164 8.01169C22.0064 7.96669 22.1077 7.96669 22.1977 8.01169L33.5152 13.6367C33.6164 13.6929 33.6839 13.8054 33.6839 13.9179ZM24.0427 20.0829C24.0427 20.1842 24.0877 20.2742 24.1664 20.3304C24.2564 20.3754 24.3577 20.3754 24.4477 20.3304C26.3602 19.8242 28.4077 20.1392 30.0727 21.2192C30.1289 21.2304 30.1852 21.2304 30.2414 21.2192C30.2977 21.2417 30.3652 21.2417 30.4214 21.2192C31.1752 20.7242 32.0077 20.3867 32.8964 20.2179V19.5767C31.9402 19.7342 31.0289 20.0717 30.2077 20.5779C28.5202 19.5542 26.5064 19.2167 24.5827 19.6329V13.5804C26.4502 13.1304 28.4189 13.4679 30.0277 14.5142C30.1289 14.5929 30.2752 14.5929 30.3764 14.5142C30.9277 14.1654 31.5239 13.8842 32.1427 13.6929L31.3552 13.2992C30.9614 13.4679 30.5902 13.6592 30.2302 13.8842C28.4302 12.7817 26.2589 12.4779 24.2227 13.0292C24.0877 13.0742 23.9977 13.1979 23.9864 13.3329L24.0427 20.0829ZM29.8814 17.6642C28.4752 16.9104 26.8664 16.6067 25.2802 16.8092C25.1114 16.8317 24.9877 16.9892 25.0102 17.1579C25.0327 17.3267 25.1902 17.4504 25.3589 17.4279C26.8102 17.2479 28.2839 17.5067 29.5777 18.1817C29.6227 18.1817 29.6789 18.1817 29.7239 18.1817C29.8364 18.1817 29.9489 18.1254 30.0052 18.0242C30.0502 17.8892 29.9939 17.7429 29.8702 17.6642H29.8814ZM29.8814 18.9804C28.4639 18.2379 26.8664 17.9454 25.2802 18.1479C25.1114 18.1704 24.9877 18.3392 25.0102 18.5079C25.0327 18.6767 25.2014 18.8004 25.3702 18.7779C26.8214 18.5979 28.2952 18.8567 29.5889 19.5317C29.6339 19.5317 29.6902 19.5317 29.7352 19.5317C29.8589 19.5317 29.9602 19.4642 30.0164 19.3629C30.0727 19.2167 30.0164 19.0592 29.8814 18.9804ZM29.8814 16.3479C28.4639 15.6054 26.8664 15.3242 25.2802 15.5267C25.1114 15.5492 24.9877 15.7067 25.0102 15.8754C25.0327 16.0442 25.1902 16.1679 25.3589 16.1454C26.8102 15.9654 28.2839 16.2242 29.5777 16.8992C29.6227 16.9104 29.6789 16.9104 29.7239 16.8992C29.8364 16.8992 29.9489 16.8317 30.0052 16.7304C30.0614 16.5842 30.0052 16.4267 29.8702 16.3479H29.8814ZM29.8814 15.0317C28.4639 14.3004 26.8664 14.0079 25.2802 14.2104C25.1114 14.2329 24.9877 14.4017 25.0102 14.5704C25.0327 14.7392 25.2014 14.8629 25.3702 14.8404C26.8214 14.6492 28.2952 14.9192 29.5889 15.5942C29.6339 15.5942 29.6902 15.5942 29.7352 15.5942C29.8589 15.5942 29.9602 15.5267 30.0164 15.4254C30.0727 15.2792 30.0164 15.1104 29.8814 15.0317ZM32.9977 18.8454V18.2042C32.1877 18.3279 31.4002 18.5979 30.6689 18.9804C30.5227 19.0704 30.4664 19.2617 30.5564 19.4079C30.6127 19.4979 30.7027 19.5542 30.8152 19.5654C30.8602 19.5767 30.9164 19.5767 30.9614 19.5654C31.6027 19.2279 32.2889 18.9804 32.9977 18.8454ZM32.9977 17.5292V16.8879C32.1764 17.0117 31.3777 17.2817 30.6464 17.6642C30.5002 17.7542 30.4439 17.9454 30.5339 18.0917C30.5902 18.1817 30.6802 18.2379 30.7927 18.2492C30.8377 18.2604 30.8939 18.2604 30.9389 18.2492C31.5914 17.9004 32.3002 17.6529 33.0314 17.5292H32.9977ZM32.9977 16.2129V15.5717C32.1764 15.6954 31.3777 15.9654 30.6352 16.3479C30.4889 16.4267 30.4214 16.6067 30.5002 16.7529C30.5002 16.7529 30.5002 16.7642 30.5002 16.7754C30.5564 16.8767 30.6577 16.9442 30.7702 16.9442C30.8152 16.9554 30.8714 16.9554 30.9164 16.9442C31.5802 16.5842 32.3002 16.3479 33.0427 16.2129H32.9864H32.9977ZM32.9977 14.8967V14.2554C32.1764 14.3792 31.3777 14.6492 30.6352 15.0317C30.4889 15.1104 30.4214 15.2904 30.5002 15.4367C30.5002 15.4367 30.5002 15.4479 30.5002 15.4592C30.5452 15.5604 30.6577 15.6279 30.7702 15.6279C30.8152 15.6392 30.8714 15.6392 30.9164 15.6279C31.5802 15.2679 32.3002 15.0204 33.0427 14.8967H32.9864H32.9977ZM15.7514 11.7917L15.0427 12.1404L19.4302 14.3904L13.3439 17.4392L11.0939 16.3142V17.0117L13.1752 18.0579C13.1752 18.0579 13.2652 18.0579 13.3102 18.0579C13.3552 18.0579 13.4114 18.0579 13.4564 18.0579L18.7777 15.3917V18.5979C18.4402 18.9129 18.2152 19.3292 18.1252 19.7792C17.9677 20.2742 17.8552 20.7917 17.8102 21.3092C17.8102 21.4779 17.9564 21.6129 18.1252 21.6242C18.2939 21.6242 18.4402 21.4779 18.4402 21.3092C18.4739 20.7917 18.5752 20.2742 18.7552 19.7904V21.3092C18.7552 21.4779 18.9014 21.6129 19.0702 21.6242C19.2389 21.6242 19.3852 21.4779 19.3852 21.3092V19.7567C19.5652 20.2517 19.6664 20.7804 19.7002 21.3092C19.7002 21.4779 19.8464 21.6129 20.0152 21.6242C20.1839 21.6242 20.3302 21.4779 20.3302 21.3092C20.2964 20.7804 20.1952 20.2629 20.0377 19.7567C19.9589 19.3067 19.7227 18.8904 19.3852 18.5754V15.0317L20.2177 14.6154C20.3752 14.5367 20.4314 14.3454 20.3527 14.1879C20.3189 14.1317 20.2739 14.0754 20.2177 14.0529L15.7514 11.7917ZM11.2514 19.9479C11.9489 20.1054 12.6689 20.1842 13.3889 20.1842C15.9877 20.1842 17.8889 19.2842 17.8889 18.1029V16.5617C17.8889 16.3929 17.7652 16.2579 17.5964 16.2467C17.5964 16.2467 17.5852 16.2467 17.5739 16.2467C17.4052 16.2467 17.2589 16.3929 17.2589 16.5617V18.1029C17.2589 18.7892 15.6502 19.5542 13.3327 19.5542C12.6014 19.5542 11.8814 19.4754 11.1727 19.2954C11.1389 19.5092 11.1389 19.7229 11.1502 19.9479H11.2514ZM20.9714 32.5592C20.3077 32.1204 19.4864 31.9854 18.7214 32.1767C18.2489 32.2667 17.7764 32.2667 17.3039 32.1767C17.1352 32.1429 16.9664 32.2667 16.9439 32.4354C16.9214 32.5817 17.0002 32.7279 17.1464 32.7842C17.6977 32.8967 18.2602 32.8967 18.8114 32.7842C19.4189 32.6154 20.0714 32.7279 20.5889 33.0767C20.6452 33.0992 20.7127 33.0992 20.7689 33.0767C20.8702 33.0767 20.9714 33.0317 21.0277 32.9417C21.0952 32.8179 21.0727 32.6604 20.9714 32.5592ZM19.9252 31.1529C19.3402 30.7704 18.6877 30.4779 18.0014 30.3092C17.0227 30.0167 16.1789 29.7692 15.7514 28.8242C15.6839 28.6667 15.5039 28.5879 15.3464 28.6554C15.1889 28.7117 15.0989 28.8804 15.1552 29.0379C15.1552 29.0379 15.1552 29.0492 15.1552 29.0604C15.6502 30.0729 16.6289 30.7704 17.7539 30.9167C18.3727 31.0629 18.9689 31.3217 19.4977 31.6704C19.5539 31.7154 19.6214 31.7379 19.6889 31.7379C19.8577 31.7379 20.0039 31.6142 20.0152 31.4342C20.0152 31.3217 19.9702 31.2204 19.8802 31.1642H19.9139L19.9252 31.1529ZM19.2277 29.7467C18.4964 29.1954 17.7089 28.7229 16.8764 28.3404C15.8189 27.8454 14.9077 27.4067 14.7389 26.6979C14.6827 26.5292 14.5027 26.4504 14.3339 26.5067C14.1877 26.5629 14.1089 26.7092 14.1314 26.8554C14.3677 27.8454 15.4027 28.3404 16.5952 28.9142C17.3939 29.2517 18.1477 29.6904 18.8452 30.2079C18.9014 30.2529 18.9689 30.2754 19.0364 30.2754C19.1377 30.2754 19.2277 30.2304 19.2839 30.1517C19.3852 30.0167 19.3739 29.8254 19.2389 29.7242C19.2389 29.7242 19.2389 29.7242 19.2277 29.7242V29.7579V29.7467ZM18.5414 28.0029C17.9339 27.4629 17.2589 27.0017 16.5164 26.6642C15.3914 26.0454 14.2664 25.4717 14.0302 24.2792C13.9964 24.1104 13.8389 23.9979 13.6702 24.0204C13.5014 24.0542 13.3889 24.2229 13.4114 24.3917C13.6589 25.8767 14.9639 26.5629 16.2239 27.2267C16.9102 27.5417 17.5402 27.9579 18.1027 28.4529C18.1589 28.5092 18.2489 28.5429 18.3277 28.5429C18.4064 28.5429 18.4852 28.5092 18.5414 28.4529C18.6764 28.3404 18.6877 28.1379 18.5864 28.0142C18.5752 28.0029 18.5639 27.9917 18.5414 27.9692V28.0029ZM22.3664 35.6529V24.6842C22.5802 23.9529 23.1539 23.3792 23.8852 23.1654H32.6264C32.6264 22.9629 32.6827 22.7492 32.7052 22.5354H23.8852C23.1539 22.3217 22.5914 21.7592 22.3664 21.0279V8.76544L22.0514 8.60794L21.7364 8.76544V21.0617C21.5227 21.7817 20.9714 22.3442 20.2514 22.5692H11.3527C11.3527 22.7829 11.4089 22.9967 11.4314 23.1992H13.5689C14.5364 24.3129 15.6727 25.2579 16.9439 26.0004L17.4389 26.3267C19.2502 27.4067 20.3977 29.3304 20.4877 31.4342C20.5102 31.5917 20.6339 31.7042 20.7914 31.7042H20.8477C21.0164 31.6817 21.1289 31.5242 21.1064 31.3667C20.9827 29.0717 19.7114 27.0017 17.7314 25.8429L17.2364 25.5167C16.1789 24.8979 15.2002 24.1329 14.3339 23.2667H20.2514C20.9489 23.4804 21.5002 24.0092 21.7364 24.6954V35.5967L22.0514 35.7317L22.3664 35.6642V35.6529ZM28.3064 32.1429C27.8339 29.4092 26.8664 27.8229 23.3564 27.3279C23.2552 27.3054 23.1427 27.3504 23.0752 27.4292C23.0077 27.5079 22.9852 27.6204 23.0077 27.7217C23.9752 31.0967 25.4827 32.1204 27.7439 32.6154L28.3064 32.1429ZM28.7564 29.7129C30.2527 27.7104 30.2527 26.6192 28.7564 24.6167C28.6439 24.4817 28.4414 24.4592 28.2952 24.5717C28.2727 24.5829 28.2614 24.6054 28.2502 24.6167C26.7539 26.6192 26.7539 27.7104 28.2502 29.7129C28.3064 29.7917 28.3964 29.8367 28.4977 29.8367C28.5989 29.8367 28.7002 29.7692 28.7564 29.6792V29.7129ZM29.6902 30.7367C29.9152 30.0167 30.3539 29.3979 30.9502 28.9367C31.1302 28.6104 31.2877 28.2729 31.4452 27.9242H31.3552C29.9152 28.6442 28.9477 30.0392 28.7789 31.6367C29.0939 31.3442 29.3977 31.0292 29.6902 30.7029V30.7367Z" fill="var(--fill-0, white)"/>
</g>
</svg>
